<svg width="31" height="20" viewBox="0 0 31 20" fill="none" xmlns="http://www.w3.org/2000/svg">
<path fill-rule="evenodd" clip-rule="evenodd" d="M9.67324 2.74569C7.4596 2.74569 5.47698 3.71531 4.11689 5.25675L4.11558 5.25823C2.96441 6.55741 2.26497 8.27604 2.26497 10.154C2.26497 14.2449 5.58229 17.5622 9.67324 17.5622C13.7642 17.5622 17.0815 14.2449 17.0815 10.154C17.0815 9.63043 17.5059 9.20604 18.0294 9.20604C18.5529 9.20604 18.9773 9.63043 18.9773 10.154C18.9773 15.2919 14.8112 19.4581 9.67324 19.4581C4.53525 19.4581 0.369141 15.2919 0.369141 10.154C0.369141 7.79842 1.24783 5.63637 2.69597 4.00168C4.3998 2.07109 6.8921 0.849854 9.67324 0.849854C10.1968 0.849854 10.6212 1.27425 10.6212 1.79777C10.6212 2.32129 10.1968 2.74569 9.67324 2.74569Z" fill="#B3B3B3"/>
<path fill-rule="evenodd" clip-rule="evenodd" d="M11.4199 10.154C11.4199 5.01596 15.586 0.849854 20.724 0.849854C25.862 0.849854 30.0281 5.01596 30.0281 10.154C30.0281 15.2919 25.862 19.4581 20.724 19.4581C20.2005 19.4581 19.7761 19.0337 19.7761 18.5101C19.7761 17.9866 20.2005 17.5622 20.724 17.5622C24.815 17.5622 28.1323 14.2449 28.1323 10.154C28.1323 6.063 24.815 2.74569 20.724 2.74569C16.6331 2.74569 13.3158 6.063 13.3158 10.154C13.3158 10.6775 12.8914 11.1019 12.3678 11.1019C11.8443 11.1019 11.4199 10.6775 11.4199 10.154Z" fill="#B3B3B3"/>
</svg>
