<svg width="55" height="36" viewBox="0 0 55 36" fill="none" xmlns="http://www.w3.org/2000/svg">
<path d="M17.9619 35.9233C8.05958 35.9233 0 27.8637 0 17.9614C0 13.5873 1.59977 9.3753 4.49554 6.09477C7.89757 2.22698 12.8184 0.0197144 17.9619 0.0197144C20.0477 0.0197144 21.7487 1.72073 21.7487 3.8065C21.7487 5.89227 20.0477 7.59328 17.9619 7.59328C14.9851 7.59328 12.1299 8.86904 10.1656 11.1168C8.48482 13.0203 7.57356 15.4504 7.57356 17.9816C7.57356 23.7124 12.2311 28.37 17.9619 28.37C23.6927 28.37 28.3503 23.7124 28.3503 17.9816C28.3503 15.8959 30.0513 14.1948 32.137 14.1948C34.2228 14.1948 35.9238 15.8959 35.9238 17.9816C35.9238 27.884 27.8643 35.9435 17.9619 35.9435V35.9233Z" fill="#FBB03B"/>
<path d="M36.717 35.9238C34.6313 35.9238 32.9303 34.2228 32.9303 32.137C32.9303 30.0513 34.6313 28.3503 36.717 28.3503C42.4478 28.3503 47.1054 23.6927 47.1054 17.9619C47.1054 12.2311 42.4478 7.57357 36.717 7.57357C30.9862 7.57357 26.3287 12.2311 26.3287 17.9619C26.3287 20.0477 24.6277 21.7487 22.5419 21.7487C20.4561 21.7487 18.7551 20.0477 18.7551 17.9619C18.7551 8.05957 26.8147 0 36.717 0C46.6194 0 54.6789 8.05957 54.6789 17.9619C54.6789 27.8642 46.6194 35.9238 36.717 35.9238Z" fill="#FBB03B"/>
</svg>
