<svg width="124" height="30" viewBox="0 0 124 30" fill="none" xmlns="http://www.w3.org/2000/svg">
<path d="M24.9632 9.45159C23.8363 8.81465 22.538 8.48393 21.0926 8.48393C19.4635 8.48393 17.9814 8.83915 16.7075 9.54958C16.0093 9.94155 15.3846 10.4193 14.8457 10.9705C14.3312 10.3458 13.731 9.83131 13.0451 9.43934C11.9182 8.8024 10.6198 8.47168 9.17442 8.47168C7.72905 8.47168 6.32043 8.83915 5.14454 9.54958C4.91181 9.68432 4.69133 9.84356 4.4831 10.0028C4.37286 9.75781 4.22587 9.53733 4.02989 9.34135C3.60118 8.91264 3.02548 8.69216 2.33954 8.69216C1.6536 8.69216 1.11465 8.91264 0.673689 9.34135C0.22048 9.78231 0 10.3458 0 11.0439V26.9798C0 27.6412 0.22048 28.2169 0.673689 28.6579C1.11465 29.0988 1.6781 29.3315 2.35179 29.3315C3.02548 29.3315 3.61342 29.0988 4.05438 28.6579C4.4831 28.2169 4.70358 27.6534 4.70358 26.992V16.8867C4.70358 15.674 5.05879 14.7186 5.78148 13.9469C6.49191 13.1875 7.37384 12.82 8.47624 12.82C9.57864 12.82 10.3626 13.1263 11.0118 13.7632C11.6487 14.3879 11.9672 15.3923 11.9672 16.7397V26.9798C11.9672 27.6412 12.1877 28.2169 12.6409 28.6579C13.0818 29.0988 13.6453 29.3315 14.319 29.3315C14.9926 29.3315 15.5806 29.0988 16.0216 28.6579C16.4503 28.2169 16.6707 27.6534 16.6707 26.992V16.8867C16.6707 15.674 17.0137 14.7186 17.7241 13.9469C18.4223 13.1875 19.3043 12.82 20.4067 12.82C21.5091 12.82 22.293 13.1263 22.9422 13.7632C23.5791 14.3879 23.8976 15.3923 23.8976 16.7397V26.9798C23.8976 27.6412 24.1181 28.2169 24.5713 28.6579C25.0122 29.0988 25.5757 29.3315 26.2494 29.3315C26.9231 29.3315 27.511 29.0988 27.952 28.6579C28.3807 28.2169 28.6012 27.6534 28.6012 26.992V16.7397C28.6012 15.0126 28.2827 13.5182 27.6703 12.2933C27.0456 11.0439 26.1514 10.0885 25.0122 9.43934L24.9632 9.45159Z" fill="#FBB03B"/>
<path d="M36.2673 8.66797C35.6058 8.66797 35.0424 8.88845 34.6014 9.31716C34.1482 9.75812 33.9277 10.3216 33.9277 11.0198V26.9556C33.9277 27.617 34.1482 28.1927 34.6014 28.6337C35.0424 29.0746 35.6058 29.3074 36.2795 29.3074C36.9532 29.3074 37.5412 29.0746 37.9821 28.6337C38.4108 28.1927 38.6313 27.6293 38.6313 26.9678V11.0198C38.6313 10.3338 38.4108 9.75812 37.9821 9.32941C37.5412 8.9007 36.9777 8.68022 36.2918 8.68022L36.2673 8.66797Z" fill="#FBB03B"/>
<path d="M36.2696 0.754883C35.4857 0.754883 34.7998 1.03661 34.2363 1.60006C33.6729 2.16351 33.3789 2.84944 33.3789 3.63337C33.3789 4.4173 33.6606 5.10324 34.2363 5.66669C34.7998 6.23014 35.4857 6.52411 36.2696 6.52411C37.0536 6.52411 37.7395 6.24239 38.303 5.66669C38.8664 5.09099 39.1481 4.4173 39.1481 3.63337C39.1481 2.84944 38.8664 2.16351 38.2907 1.60006C37.7273 1.03661 37.0413 0.754883 36.2574 0.754883H36.2696Z" fill="#FBB03B"/>
<path d="M59.3078 9.61172C57.936 8.86454 56.3681 8.49707 54.641 8.49707C52.9139 8.49707 51.4685 8.86454 50.1334 9.59947C49.7292 9.81995 49.3495 10.0649 48.9943 10.3344C48.8963 9.94244 48.7003 9.61172 48.4186 9.33C47.9776 8.90128 47.4141 8.6808 46.7282 8.6808C46.0423 8.6808 45.5033 8.90128 45.0624 9.33C44.6092 9.77096 44.3887 10.3344 44.3887 11.0326V27.0051C44.3887 27.6666 44.6092 28.23 45.0624 28.6832C45.5033 29.1242 46.0668 29.3569 46.7405 29.3569C47.4142 29.3569 48.0021 29.1242 48.4431 28.6832C48.8718 28.2423 49.0922 27.6788 49.0922 27.0174V16.8876C49.0922 16.1036 49.3005 15.4422 49.7169 14.842C50.1457 14.2418 50.7214 13.7396 51.4563 13.3844C52.1912 13.0169 53.0241 12.8332 53.9428 12.8332C54.9595 12.8332 55.8536 13.0292 56.6253 13.4089C57.3848 13.7886 57.9727 14.3398 58.4259 15.1237C58.8791 15.8954 59.1118 16.9243 59.1118 18.1859V26.9929C59.1118 27.6543 59.3323 28.2178 59.7855 28.671C60.2265 29.112 60.7899 29.3447 61.4636 29.3447C62.1373 29.3447 62.6885 29.1242 63.1417 28.671C63.5827 28.23 63.8154 27.6666 63.8154 26.9929V18.1859C63.8154 16.1281 63.4112 14.352 62.6273 12.9189C61.8311 11.4736 60.7287 10.3589 59.3446 9.61172H59.3078Z" fill="#FBB03B"/>
<path d="M87.0177 12.9181C86.2216 11.4727 85.1192 10.3581 83.735 9.61092C82.3632 8.86373 80.7953 8.49627 79.0682 8.49627C77.3411 8.49627 75.8957 8.86373 74.5606 9.59867C74.1931 9.8069 73.8379 10.0274 73.5072 10.2724V2.6413C73.5072 1.95536 73.2867 1.37966 72.858 0.950949C72.4293 0.522238 71.8536 0.301758 71.1677 0.301758C70.4817 0.301758 69.9428 0.522238 69.5018 0.950949C69.0486 1.39191 68.8281 1.95536 68.8281 2.65355V26.9921C68.8281 27.6535 69.0486 28.217 69.5018 28.6702C69.9428 29.1112 70.5062 29.3439 71.1799 29.3439C71.8536 29.3439 72.4416 29.1112 72.8825 28.6702C73.3112 28.2292 73.5317 27.6658 73.5317 27.0043V16.8868C73.5317 16.1028 73.7399 15.4414 74.1564 14.8412C74.5851 14.241 75.1608 13.7388 75.8957 13.3836C76.6307 13.0161 77.4636 12.8324 78.3823 12.8324C79.3989 12.8324 80.2931 13.0284 81.0648 13.4081C81.8242 13.7878 82.4121 14.339 82.8654 15.1229C83.3186 15.8946 83.5513 16.9235 83.5513 18.1851V26.9921C83.5513 27.6535 83.7718 28.2292 84.225 28.6702C84.6659 29.1112 85.2294 29.3439 85.9031 29.3439C86.5768 29.3439 87.128 29.1234 87.5812 28.6702C88.0344 28.217 88.2549 27.6658 88.2549 26.9921V18.1851C88.2549 16.1273 87.8507 14.3512 87.0667 12.9181H87.0177Z" fill="#FBB03B"/>
<path d="M101.791 29.686C95.8008 29.686 90.9258 24.811 90.9258 18.8213C90.9258 16.1755 91.8934 13.6277 93.645 11.6434C95.7029 9.30388 98.6793 7.96875 101.791 7.96875C103.052 7.96875 104.081 8.99766 104.081 10.2593C104.081 11.5209 103.052 12.5498 101.791 12.5498C99.99 12.5498 98.2629 13.3215 97.0747 14.6811C96.0581 15.8325 95.5069 17.3024 95.5069 18.8335C95.5069 22.3 98.3241 25.1172 101.791 25.1172C105.257 25.1172 108.074 22.3 108.074 18.8335C108.074 17.5719 109.103 16.543 110.365 16.543C111.626 16.543 112.655 17.5719 112.655 18.8335C112.655 24.8232 107.78 29.6983 101.791 29.6983V29.686Z" fill="#FBB03B"/>
<path d="M113.134 29.6866C111.873 29.6866 110.844 28.6577 110.844 27.396C110.844 26.1344 111.873 25.1055 113.134 25.1055C116.601 25.1055 119.418 22.2882 119.418 18.8218C119.418 15.3554 116.601 12.5381 113.134 12.5381C109.668 12.5381 106.851 15.3554 106.851 18.8218C106.851 20.0834 105.822 21.1123 104.56 21.1123C103.298 21.1123 102.27 20.0834 102.27 18.8218C102.27 12.8321 107.145 7.95703 113.134 7.95703C119.124 7.95703 123.999 12.8321 123.999 18.8218C123.999 24.8115 119.124 29.6866 113.134 29.6866Z" fill="#FBB03B"/>
</svg>
