<svg width="35" height="36" viewBox="0 0 35 36" fill="none" xmlns="http://www.w3.org/2000/svg">
<path fill-rule="evenodd" clip-rule="evenodd" d="M12.6732 10.7459C10.4596 10.7459 8.47698 11.7156 7.11689 13.257L7.11558 13.2585C5.96441 14.5577 5.26497 16.2763 5.26497 18.1542C5.26497 22.2451 8.58229 25.5625 12.6732 25.5625C16.7642 25.5625 20.0815 22.2451 20.0815 18.1542C20.0815 17.6307 20.5059 17.2063 21.0294 17.2063C21.5529 17.2063 21.9773 17.6307 21.9773 18.1542C21.9773 23.2922 17.8112 27.4583 12.6732 27.4583C7.53525 27.4583 3.36914 23.2922 3.36914 18.1542C3.36914 15.7987 4.24783 13.6366 5.69597 12.0019C7.3998 10.0713 9.8921 8.8501 12.6732 8.8501C13.1968 8.8501 13.6212 9.27449 13.6212 9.79801C13.6212 10.3215 13.1968 10.7459 12.6732 10.7459Z" fill="#B3B3B3"/>
<path fill-rule="evenodd" clip-rule="evenodd" d="M14.4199 18.1542C14.4199 13.0162 18.586 8.8501 23.724 8.8501C28.862 8.8501 33.0281 13.0162 33.0281 18.1542C33.0281 23.2922 28.862 27.4583 23.724 27.4583C23.2005 27.4583 22.7761 27.0339 22.7761 26.5104C22.7761 25.9869 23.2005 25.5625 23.724 25.5625C27.815 25.5625 31.1323 22.2451 31.1323 18.1542C31.1323 14.0632 27.815 10.7459 23.724 10.7459C19.6331 10.7459 16.3158 14.0632 16.3158 18.1542C16.3158 18.6777 15.8914 19.1021 15.3678 19.1021C14.8443 19.1021 14.4199 18.6777 14.4199 18.1542Z" fill="#B3B3B3"/>
</svg>
